<svg width="30" height="20" viewBox="0 0 30 20" fill="none" xmlns="http://www.w3.org/2000/svg">
<g clip-path="url(#clip0_5355_168065)">
<path d="M0 0H30V20H0V0Z" fill="#003399"/>
<path d="M14.9988 2.21729L15.2482 2.98462H16.0591L15.406 3.45914L15.6519 4.22728L14.9988 3.75277L14.3456 4.22728L14.5951 3.45954L13.9421 2.98503H14.7493L14.9988 2.21729ZM11.6654 3.10617L11.9149 3.87351H12.7258L12.0727 4.34803L12.3185 5.11617L11.6654 4.64165L11.0123 5.11617L11.2618 4.34843L10.6087 3.87391H11.416L11.6654 3.10617ZM9.22098 5.55062L9.47043 6.31795H10.2813L9.62824 6.79247L9.87409 7.56062L9.22098 7.0861L8.56787 7.56062L8.81735 6.79288L8.16428 6.31836H8.97154L9.22098 5.55062ZM8.33209 8.88391L8.58154 9.65128H9.39243L8.73935 10.1258L8.98521 10.894L8.33209 10.4194L7.67898 10.894L7.92846 10.1262L7.27539 9.65169H8.08265L8.33209 8.88391ZM9.22098 12.2173L9.47043 12.9847H10.2813L9.62824 13.4591L9.87409 14.2273L9.22098 13.7528L8.56787 14.2273L8.81735 13.4595L8.16428 12.985H8.97154L9.22098 12.2173ZM11.6654 14.6617L11.9149 15.4291H12.7258L12.0727 15.9036L12.3185 16.6717L11.6654 16.1972L11.0123 16.6717L11.2618 15.904L10.6087 15.4295H11.416L11.6654 14.6617ZM18.3321 3.10617L18.5815 3.87351H19.3924L18.7394 4.34803L18.9852 5.11617L18.3321 4.64165L17.6789 5.11617L17.9285 4.34843L17.2754 3.87391H18.0826L18.3321 3.10617ZM20.7765 5.55062L21.026 6.31795H21.8369L21.1838 6.79247L21.4296 7.56062L20.7765 7.0861L20.1234 7.56062L20.3729 6.79288L19.7198 6.31836H20.5271L20.7765 5.55062ZM21.6654 8.88395L21.9149 9.65128H22.7258L22.0727 10.1258L22.3185 10.894L21.6654 10.4194L21.0123 10.894L21.2618 10.1262L20.6087 9.65169H21.416L21.6654 8.88395ZM20.7765 12.2173L21.026 12.9847H21.8369L21.1838 13.4591L21.4296 14.2273L20.7765 13.7528L20.1234 14.2273L20.3729 13.4595L19.7198 12.985H20.5271L20.7765 12.2173ZM14.9988 15.5506L15.2482 16.318H16.0591L15.406 16.7925L15.6519 17.5606L14.9988 17.0861L14.3456 17.5606L14.5951 16.7929L13.9421 16.3184H14.7493L14.9988 15.5506ZM18.3321 14.6617L18.5815 15.4291H19.3924L18.7394 15.9036L18.9852 16.6717L18.3321 16.1972L17.679 16.6717L17.9285 15.904L17.2754 15.4295H18.0827L18.3321 14.6617Z" fill="#FFCC00"/>
</g>
<defs>
<clipPath id="clip0_5355_168065">
<rect width="30" height="20" rx="4" fill="white"/>
</clipPath>
</defs>
</svg>
